<svg xmlns="http://www.w3.org/2000/svg" viewBox="0 0 128 128">
  <defs>
    <linearGradient id="g" x1="0" x2="1" y1="0" y2="1">
      <stop offset="0" stop-color="#111111"/>
      <stop offset="1" stop-color="#2a2a2a"/>
    </linearGradient>
    <filter id="shadow" x="-20%" y="-20%" width="140%" height="140%">
      <feDropShadow dx="0" dy="8" stdDeviation="8" flood-color="#000000" flood-opacity="0.38"/>
    </filter>
  </defs>
  <rect width="128" height="128" rx="28" fill="url(#g)"/>
  <circle cx="94" cy="34" r="30" fill="#ee2126" opacity="0.95"/>
  <path d="M28 26h34v13H44v58c0 15-9 24-25 24-4 0-8-.5-12-1.5V105c3 .7 6 1 9 1 8 0 12-4 12-12V26Z" fill="#ffffff" filter="url(#shadow)"/>
  <path d="M65 26h24c21 0 34 11 34 30 0 18-13 30-34 30H80v35H65V26Zm15 14v32h9c12 0 19-6 19-16s-7-16-19-16h-9Z" fill="#ffffff" filter="url(#shadow)"/>
  <path d="M17 116h94" stroke="#ee2126" stroke-width="8" stroke-linecap="round"/>
</svg>
